<mxfile host="Electron" agent="Mozilla/5.0 (Macintosh; Intel Mac OS X 10_15_7) AppleWebKit/537.36 (KHTML, like Gecko) draw.io/24.2.5 Chrome/120.0.6099.109 Electron/28.1.0 Safari/537.36" modified="2024-09-10T16:18:41.701Z" etag="OGFz__qzcHDrd1FMWs8f" version="24.2.5" type="device">
  <diagram name="Page-1" id="Bs9_zxaJzwL-Q515ANvO">
    <mxGraphModel dx="2224" dy="542" grid="1" gridSize="10" guides="1" tooltips="1" connect="1" arrows="1" fold="1" page="1" pageScale="1" pageWidth="850" pageHeight="1100" math="1" shadow="0">
      <root>
        <mxCell id="0" />
        <mxCell id="1" parent="0" />
        <mxCell id="Yao4SVYsvOSKaDtF5JDH-19" style="rounded=0;orthogonalLoop=1;jettySize=auto;html=1;exitX=1;exitY=0.5;exitDx=0;exitDy=0;entryX=0;entryY=0.5;entryDx=0;entryDy=0;fontSize=13;" parent="1" edge="1">
          <mxGeometry relative="1" as="geometry">
            <mxPoint x="29.999999999995907" y="228" as="targetPoint" />
            <mxPoint x="-109.99999999999591" y="228" as="sourcePoint" />
          </mxGeometry>
        </mxCell>
        <mxCell id="Yao4SVYsvOSKaDtF5JDH-34" value="&lt;span style=&quot;font-size: 13px; text-wrap: wrap; background-color: rgb(251, 251, 251);&quot;&gt;\[ U(t) \neq 0 \]&lt;/span&gt;" style="edgeLabel;html=1;align=center;verticalAlign=middle;resizable=0;points=[];fontSize=13;" parent="Yao4SVYsvOSKaDtF5JDH-19" vertex="1" connectable="0">
          <mxGeometry x="-0.0458" relative="1" as="geometry">
            <mxPoint x="-25" y="-1" as="offset" />
          </mxGeometry>
        </mxCell>
        <mxCell id="Yao4SVYsvOSKaDtF5JDH-1" value="" style="ellipse;whiteSpace=wrap;html=1;aspect=fixed;fontSize=13;" parent="1" vertex="1">
          <mxGeometry x="-180" y="196" width="70" height="70" as="geometry" />
        </mxCell>
        <mxCell id="Yao4SVYsvOSKaDtF5JDH-2" value="&lt;span style=&quot;font-size: 13px;&quot;&gt;\[ Init \]&lt;/span&gt;" style="ellipse;whiteSpace=wrap;html=1;aspect=fixed;fontSize=13;" parent="1" vertex="1">
          <mxGeometry x="-170" y="206" width="50" height="50" as="geometry" />
        </mxCell>
        <mxCell id="QYYGGdQtFWJd2lB_9nhR-5" style="edgeStyle=orthogonalEdgeStyle;rounded=0;orthogonalLoop=1;jettySize=auto;html=1;entryX=0;entryY=0.5;entryDx=0;entryDy=0;curved=1;exitX=0;exitY=0.5;exitDx=0;exitDy=0;fontSize=13;" parent="1" edge="1">
          <mxGeometry relative="1" as="geometry">
            <Array as="points">
              <mxPoint x="-60" y="319" />
              <mxPoint x="-60" y="228" />
            </Array>
            <mxPoint x="29.999999999995907" y="319" as="sourcePoint" />
            <mxPoint x="29.999999999995907" y="228" as="targetPoint" />
          </mxGeometry>
        </mxCell>
        <mxCell id="QYYGGdQtFWJd2lB_9nhR-6" value="&lt;span style=&quot;text-wrap: wrap; background-color: rgb(251, 251, 251); font-size: 13px;&quot;&gt;\[ U(t)&amp;lt;{Threshold}_{\text{low}}​ \]&lt;/span&gt;" style="edgeLabel;html=1;align=center;verticalAlign=middle;resizable=0;points=[];fontSize=13;" parent="QYYGGdQtFWJd2lB_9nhR-5" vertex="1" connectable="0">
          <mxGeometry x="-0.0045" y="1" relative="1" as="geometry">
            <mxPoint x="21" y="3" as="offset" />
          </mxGeometry>
        </mxCell>
        <mxCell id="QYYGGdQtFWJd2lB_9nhR-9" style="edgeStyle=orthogonalEdgeStyle;rounded=0;orthogonalLoop=1;jettySize=auto;html=1;entryX=1;entryY=0.5;entryDx=0;entryDy=0;exitX=1;exitY=0.5;exitDx=0;exitDy=0;curved=1;fontSize=13;" parent="1" edge="1">
          <mxGeometry relative="1" as="geometry">
            <Array as="points">
              <mxPoint x="190" y="326" />
              <mxPoint x="190" y="419" />
            </Array>
            <mxPoint x="100.00000000000387" y="326" as="sourcePoint" />
            <mxPoint x="102.00000000000387" y="419" as="targetPoint" />
          </mxGeometry>
        </mxCell>
        <mxCell id="QYYGGdQtFWJd2lB_9nhR-10" value="&lt;span style=&quot;text-wrap: wrap; background-color: rgb(251, 251, 251); font-size: 13px;&quot;&gt;\[ U(t)&amp;gt;={Threshold}_{\text{high}}​ \]&lt;/span&gt;" style="edgeLabel;html=1;align=center;verticalAlign=middle;resizable=0;points=[];fontSize=13;" parent="QYYGGdQtFWJd2lB_9nhR-9" vertex="1" connectable="0">
          <mxGeometry x="0.0246" relative="1" as="geometry">
            <mxPoint x="-10" as="offset" />
          </mxGeometry>
        </mxCell>
        <mxCell id="Yao4SVYsvOSKaDtF5JDH-10" value="&lt;div style=&quot;font-size: 13px;&quot;&gt;\[ MU \]&lt;/div&gt;&lt;div style=&quot;font-size: 13px;&quot;&gt;&lt;br style=&quot;font-size: 13px;&quot;&gt;&lt;/div&gt;&lt;div style=&quot;font-size: 13px;&quot;&gt;&lt;br style=&quot;font-size: 13px;&quot;&gt;&lt;/div&gt;" style="ellipse;whiteSpace=wrap;html=1;aspect=fixed;fontSize=13;" parent="1" vertex="1">
          <mxGeometry x="30" y="287" width="70" height="70" as="geometry" />
        </mxCell>
        <mxCell id="QYYGGdQtFWJd2lB_9nhR-12" style="edgeStyle=orthogonalEdgeStyle;rounded=0;orthogonalLoop=1;jettySize=auto;html=1;entryX=0;entryY=0.5;entryDx=0;entryDy=0;exitX=0;exitY=0.5;exitDx=0;exitDy=0;curved=1;fontSize=13;" parent="1" edge="1">
          <mxGeometry relative="1" as="geometry">
            <Array as="points">
              <mxPoint x="-58" y="418" />
              <mxPoint x="-58" y="325" />
            </Array>
            <mxPoint x="31.999999999995907" y="418" as="sourcePoint" />
            <mxPoint x="29.999999999995907" y="325" as="targetPoint" />
          </mxGeometry>
        </mxCell>
        <mxCell id="QYYGGdQtFWJd2lB_9nhR-13" value="&lt;span style=&quot;text-wrap: wrap; background-color: rgb(251, 251, 251); font-size: 13px;&quot;&gt;\[ U(t)&amp;lt;{Threshold}_{\text{high}}​ \]&lt;/span&gt;" style="edgeLabel;html=1;align=center;verticalAlign=middle;resizable=0;points=[];fontSize=13;" parent="QYYGGdQtFWJd2lB_9nhR-12" vertex="1" connectable="0">
          <mxGeometry x="-0.0243" y="-1" relative="1" as="geometry">
            <mxPoint x="17" as="offset" />
          </mxGeometry>
        </mxCell>
        <mxCell id="Yao4SVYsvOSKaDtF5JDH-14" value="&lt;div style=&quot;font-size: 13px;&quot;&gt;&lt;font style=&quot;font-size: 13px;&quot;&gt;\[ HU \]&lt;/font&gt;&lt;/div&gt;&lt;div style=&quot;font-size: 13px;&quot;&gt;&lt;font style=&quot;font-size: 13px;&quot;&gt;&lt;br style=&quot;font-size: 13px;&quot;&gt;&lt;/font&gt;&lt;/div&gt;&lt;div style=&quot;font-size: 13px;&quot;&gt;&lt;br style=&quot;font-size: 13px;&quot;&gt;&lt;/div&gt;" style="ellipse;whiteSpace=wrap;html=1;aspect=fixed;fontSize=13;" parent="1" vertex="1">
          <mxGeometry x="32" y="380" width="70" height="70" as="geometry" />
        </mxCell>
        <mxCell id="QYYGGdQtFWJd2lB_9nhR-7" style="edgeStyle=orthogonalEdgeStyle;rounded=0;orthogonalLoop=1;jettySize=auto;html=1;entryX=1;entryY=0.5;entryDx=0;entryDy=0;curved=1;exitX=1;exitY=0.5;exitDx=0;exitDy=0;fontSize=13;" parent="1" edge="1">
          <mxGeometry relative="1" as="geometry">
            <Array as="points">
              <mxPoint x="190" y="229" />
              <mxPoint x="190" y="320" />
            </Array>
            <mxPoint x="100.00000000000387" y="229" as="sourcePoint" />
            <mxPoint x="100.00000000000387" y="320" as="targetPoint" />
          </mxGeometry>
        </mxCell>
        <mxCell id="QYYGGdQtFWJd2lB_9nhR-8" value="&lt;span style=&quot;text-wrap: wrap; background-color: rgb(251, 251, 251); font-size: 13px;&quot;&gt;\[ {Threshold}_{\text{low}}​&amp;gt;=U(t)&amp;lt;{Threshold_{\text{high}}}\]&lt;/span&gt;" style="edgeLabel;html=1;align=center;verticalAlign=middle;resizable=0;points=[];fontSize=13;" parent="QYYGGdQtFWJd2lB_9nhR-7" vertex="1" connectable="0">
          <mxGeometry x="0.0045" y="-1" relative="1" as="geometry">
            <mxPoint x="41" y="3" as="offset" />
          </mxGeometry>
        </mxCell>
        <mxCell id="Yao4SVYsvOSKaDtF5JDH-48" value="&lt;div style=&quot;font-size: 13px;&quot;&gt;\[ LU \]&lt;/div&gt;&lt;div style=&quot;font-size: 13px;&quot;&gt;&lt;br style=&quot;font-size: 13px;&quot;&gt;&lt;/div&gt;&lt;div style=&quot;font-size: 13px;&quot;&gt;&lt;br style=&quot;font-size: 13px;&quot;&gt;&lt;/div&gt;" style="ellipse;whiteSpace=wrap;html=1;aspect=fixed;fontSize=13;" parent="1" vertex="1">
          <mxGeometry x="30" y="196" width="70" height="70" as="geometry" />
        </mxCell>
        <mxCell id="Yao4SVYsvOSKaDtF5JDH-50" value="Low&amp;nbsp;&lt;div style=&quot;font-size: 11px;&quot;&gt;Utilization&lt;/div&gt;" style="text;html=1;align=center;verticalAlign=middle;whiteSpace=wrap;rounded=0;fontSize=11;fontStyle=0;fontColor=#808080;" parent="1" vertex="1">
          <mxGeometry x="21" y="223" width="90" height="30" as="geometry" />
        </mxCell>
        <mxCell id="Yao4SVYsvOSKaDtF5JDH-51" value="Moderate Utilization" style="text;html=1;align=center;verticalAlign=middle;whiteSpace=wrap;rounded=0;fontSize=11;fontStyle=0;fontColor=#808080;" parent="1" vertex="1">
          <mxGeometry x="24.5" y="314" width="81" height="30" as="geometry" />
        </mxCell>
        <mxCell id="Yao4SVYsvOSKaDtF5JDH-52" value="High&lt;div style=&quot;font-size: 11px;&quot;&gt;&amp;nbsp;Utilization&lt;/div&gt;" style="text;html=1;align=center;verticalAlign=middle;whiteSpace=wrap;rounded=0;fontSize=11;fontStyle=0;fontColor=#808080;" parent="1" vertex="1">
          <mxGeometry x="22" y="408" width="90" height="30" as="geometry" />
        </mxCell>
        <mxCell id="xpbfVnRx2PIDMmoDterz-9" style="edgeStyle=orthogonalEdgeStyle;rounded=0;orthogonalLoop=1;jettySize=auto;html=1;fontSize=13;startArrow=classic;startFill=1;endArrow=none;endFill=0;" edge="1" parent="1">
          <mxGeometry relative="1" as="geometry">
            <mxPoint x="100" y="228" as="targetPoint" />
            <mxPoint x="520.0000021773685" y="228.01234567901236" as="sourcePoint" />
          </mxGeometry>
        </mxCell>
        <mxCell id="xpbfVnRx2PIDMmoDterz-10" value="&lt;span style=&quot;text-wrap: wrap; background-color: rgb(251, 251, 251); font-size: 13px;&quot;&gt;&lt;font style=&quot;font-size: 13px;&quot;&gt;\[ U(t)&amp;lt;{Threshold}_{\text{low}}​∧{t}_{\text{LU}}​&amp;gt;{t}_{\text{low}}​∧¬Default\]&lt;/font&gt;&lt;/span&gt;" style="edgeLabel;html=1;align=center;verticalAlign=middle;resizable=0;points=[];fontSize=13;" vertex="1" connectable="0" parent="xpbfVnRx2PIDMmoDterz-9">
          <mxGeometry x="-0.0641" y="-2" relative="1" as="geometry">
            <mxPoint x="17" y="2" as="offset" />
          </mxGeometry>
        </mxCell>
        <mxCell id="xpbfVnRx2PIDMmoDterz-12" style="edgeStyle=orthogonalEdgeStyle;rounded=0;orthogonalLoop=1;jettySize=auto;html=1;entryX=0.5;entryY=0;entryDx=0;entryDy=0;" edge="1" parent="1" source="xpbfVnRx2PIDMmoDterz-2" target="xpbfVnRx2PIDMmoDterz-11">
          <mxGeometry relative="1" as="geometry" />
        </mxCell>
        <mxCell id="xpbfVnRx2PIDMmoDterz-13" value="&lt;span style=&quot;font-size: 13px; text-wrap: wrap; background-color: rgb(251, 251, 251);&quot;&gt;\[ C(t) = 0 \]&lt;/span&gt;" style="edgeLabel;html=1;align=center;verticalAlign=middle;resizable=0;points=[];" vertex="1" connectable="0" parent="xpbfVnRx2PIDMmoDterz-12">
          <mxGeometry x="-0.1381" relative="1" as="geometry">
            <mxPoint y="12" as="offset" />
          </mxGeometry>
        </mxCell>
        <mxCell id="xpbfVnRx2PIDMmoDterz-2" value="&lt;div style=&quot;font-size: 13px;&quot;&gt;\[ Sundown \]&lt;/div&gt;" style="ellipse;whiteSpace=wrap;html=1;aspect=fixed;fontSize=13;" vertex="1" parent="1">
          <mxGeometry x="520" y="196" width="70" height="70" as="geometry" />
        </mxCell>
        <mxCell id="xpbfVnRx2PIDMmoDterz-11" value="&lt;div style=&quot;font-size: 12.1px;&quot;&gt;\[ Shutdown \]&lt;/div&gt;" style="ellipse;whiteSpace=wrap;html=1;aspect=fixed;fontSize=12.1;" vertex="1" parent="1">
          <mxGeometry x="520" y="368" width="70" height="70" as="geometry" />
        </mxCell>
      </root>
    </mxGraphModel>
  </diagram>
</mxfile>
